<svg width="32" height="33" viewBox="0 0 32 33" fill="none" xmlns="http://www.w3.org/2000/svg">
<path d="M30.0014 16.8109C30.0014 15.6598 29.9061 14.8198 29.6998 13.9487H16.2871V19.1442H24.1601C24.0014 20.4354 23.1443 22.3798 21.2395 23.6864L21.2128 23.8604L25.4536 27.08L25.7474 27.1087C28.4458 24.6665 30.0014 21.0731 30.0014 16.8109" fill="#4285F4"/>
<path d="M16.2862 30.5C20.1433 30.5 23.3814 29.2555 25.7465 27.1089L21.2386 23.6865C20.0322 24.511 18.4132 25.0866 16.2862 25.0866C12.5085 25.0866 9.30219 22.6444 8.15923 19.2688L7.9917 19.2827L3.58202 22.6272L3.52435 22.7843C5.87353 27.3577 10.6989 30.5 16.2862 30.5Z" fill="#34A853"/>
<path d="M8.16007 19.2688C7.85848 18.3977 7.68395 17.4643 7.68395 16.4999C7.68395 15.5354 7.85849 14.6021 8.1442 13.731L8.13621 13.5455L3.67126 10.1473L3.52518 10.2154C2.55696 12.1132 2.0014 14.2444 2.0014 16.4999C2.0014 18.7555 2.55696 20.8865 3.52518 22.7843L8.16007 19.2688" fill="#FBBC05"/>
<path d="M16.2863 7.9133C18.9688 7.9133 20.7783 9.04885 21.8101 9.9978L25.8418 6.14C23.3657 3.88445 20.1434 2.5 16.2863 2.5C10.699 2.5 5.87354 5.6422 3.52435 10.2155L8.14339 13.7311C9.30223 10.3555 12.5086 7.9133 16.2863 7.9133" fill="#EB4335"/>
</svg>
