<svg width="317" height="318" viewBox="0 0 317 318" fill="none" xmlns="http://www.w3.org/2000/svg">
<g clip-path="url(#clip0_1309_4624)">
<path d="M158.536 318.072C246.093 318.072 317.072 246.869 317.072 159.036C317.072 71.2029 246.093 0 158.536 0C70.979 0 0 71.2029 0 159.036C0 246.869 70.979 318.072 158.536 318.072Z" fill="#EF781E"/>
<path fill-rule="evenodd" clip-rule="evenodd" d="M170.221 74.3085C219.412 34.8752 281.514 94.1339 259.443 143.842C253.817 156.504 243.286 166.272 230.808 172.133L57.4855 252.953L134.59 153.754V153.826C137.619 149.847 133.652 144.349 128.964 146.085L95.5685 158.24C107.037 141.598 155.218 86.3194 170.221 74.3085ZM211.694 97.245C180.968 88.0564 167.192 136.389 199.216 144.349C229.004 151.801 242.42 106.434 211.694 97.245Z" fill="white"/>
</g>
<defs>
<clipPath id="clip0_1309_4624">
<rect width="317" height="318" fill="white"/>
</clipPath>
</defs>
</svg>
